<svg xmlns="http://www.w3.org/2000/svg" width="104.949" height="29.628" viewBox="0 0 104.949 29.628">
  <g id="logo" transform="translate(0 -3.95)">
    <g id="Group_1000001203" data-name="Group 1000001203">
      <g id="slack">
        <g id="Group" transform="translate(0 3.95)">
          <path id="Vector" d="M10.863,13.826h-7.9a2.963,2.963,0,0,1,0-5.926h7.9a2.963,2.963,0,1,1,0,5.926Zm2.964-7.9H10.864a2.962,2.962,0,1,1,2.963-2.96V5.923Z" transform="translate(0 0)" fill="#c4c4c4"/>
          <path id="Vector-2" data-name="Vector" d="M10.863,13.826H7.9V10.863a2.963,2.963,0,1,1,2.964,2.963Zm-7.9,0A2.962,2.962,0,0,1,0,10.863v-7.9a2.963,2.963,0,0,1,5.926,0v7.9a2.963,2.963,0,0,1-2.964,2.963Z" transform="translate(15.801)" fill="#c4c4c4"/>
          <path id="Vector-3" data-name="Vector" d="M2.963,13.828A2.968,2.968,0,0,1,0,10.865V7.9H2.963a2.962,2.962,0,1,1,0,5.925Zm7.9-7.9h-7.9A2.963,2.963,0,0,1,2.965,0h7.9a2.963,2.963,0,0,1,0,5.926Z" transform="translate(15.801 15.8)" fill="#c4c4c4"/>
          <path id="Vector-4" data-name="Vector" d="M10.863,13.826A2.962,2.962,0,0,1,7.9,10.863v-7.9a2.962,2.962,0,0,1,5.925,0v7.9a2.963,2.963,0,0,1-2.963,2.962Zm-7.9-7.9A2.962,2.962,0,0,1,.867.868,2.947,2.947,0,0,1,2.963,0H5.927V2.962A2.963,2.963,0,0,1,2.963,5.924Z" transform="translate(0 15.801)" fill="#c4c4c4"/>
        </g>
        <path id="slack-2" data-name="slack" d="M1.6-.571V-3.287A7.489,7.489,0,0,0,6.157-1.759q3.333,0,3.333-2.222A1.928,1.928,0,0,0,9.2-5.054a2.845,2.845,0,0,0-.772-.779,5.939,5.939,0,0,0-1.142-.61q-.656-.27-1.412-.563a18.185,18.185,0,0,1-1.844-.841A5.571,5.571,0,0,1,2.708-8.8a3.56,3.56,0,0,1-.8-1.211,4.285,4.285,0,0,1-.27-1.589,3.776,3.776,0,0,1,.509-1.967A4.516,4.516,0,0,1,3.5-15.007a6.332,6.332,0,0,1,1.937-.872,8.59,8.59,0,0,1,2.245-.293,9.066,9.066,0,0,1,3.673.71V-12.9a7.157,7.157,0,0,0-4.012-1.142,4.69,4.69,0,0,0-1.281.162,3.136,3.136,0,0,0-.98.455,2.1,2.1,0,0,0-.633.7,1.85,1.85,0,0,0-.224.9,2.165,2.165,0,0,0,.224,1.034,2.276,2.276,0,0,0,.656.741,5.013,5.013,0,0,0,1.049.586q.617.262,1.4.571a19.543,19.543,0,0,1,1.883.826,6.457,6.457,0,0,1,1.42.957,3.738,3.738,0,0,1,.9,1.227,3.957,3.957,0,0,1,.316,1.651,3.893,3.893,0,0,1-.517,2.037A4.43,4.43,0,0,1,10.184-.756,6.326,6.326,0,0,1,8.194.093,9.829,9.829,0,0,1,5.833.37,8.965,8.965,0,0,1,1.6-.571ZM18.5,0H15.971V-23.393H18.5ZM34.936,0H32.405V-2.469h-.062A5.3,5.3,0,0,1,27.483.37a5.2,5.2,0,0,1-3.7-1.25A4.33,4.33,0,0,1,22.452-4.2q0-4.429,5.216-5.154l4.737-.664q0-4.027-3.256-4.027A7.779,7.779,0,0,0,24-12.1V-14.69a9.792,9.792,0,0,1,5.37-1.481q5.571,0,5.571,5.895ZM32.405-7.993l-3.811.525A6.188,6.188,0,0,0,25.94-6.6a2.514,2.514,0,0,0-.895,2.214,2.412,2.412,0,0,0,.826,1.89,3.19,3.19,0,0,0,2.2.733,4.062,4.062,0,0,0,3.109-1.319,4.714,4.714,0,0,0,1.227-3.341ZM50.475-.725A8.223,8.223,0,0,1,46.154.37a7.153,7.153,0,0,1-5.455-2.2,7.969,7.969,0,0,1-2.075-5.7A8.76,8.76,0,0,1,40.861-13.8a7.827,7.827,0,0,1,5.972-2.369,8.313,8.313,0,0,1,3.673.772v2.592a6.434,6.434,0,0,0-3.765-1.234,5.088,5.088,0,0,0-3.973,1.736,6.587,6.587,0,0,0-1.551,4.56,6.272,6.272,0,0,0,1.458,4.382,5.026,5.026,0,0,0,3.912,1.6,6.342,6.342,0,0,0,3.889-1.373ZM67.418,0H63.869L56.894-7.592h-.062V0H54.3V-23.393h2.531V-8.564h.062L63.53-15.8h3.318l-7.33,7.623Z" transform="translate(37.531 30)" fill="#c4c4c4"/>
      </g>
    </g>
  </g>
</svg>
