<svg xmlns="http://www.w3.org/2000/svg" width="157" height="32" viewBox="0 0 157 32">
  <path id="logo" d="M34.831,32h0L25.46,26.725H4.957A4.99,4.99,0,0,1,0,21.714V5.011A4.954,4.954,0,0,1,1.448,1.459,4.882,4.882,0,0,1,4.936,0H48.224a4.99,4.99,0,0,1,4.957,5.011v16.7a4.99,4.99,0,0,1-4.957,5.011H32.7L34.83,32Zm-21-17.934v0c1.165,4.122,2.781,7.272,4.8,9.36a2.243,2.243,0,0,0,1.6.817c.04,0,.081,0,.121,0A1.4,1.4,0,0,0,21.5,23.45,2.637,2.637,0,0,0,21.764,22a41.5,41.5,0,0,1,.609-8.374,26.579,26.579,0,0,1,2.109-7.933A1.923,1.923,0,0,0,24.7,4.637a1.719,1.719,0,0,0-.674-1.252,1.9,1.9,0,0,0-1.2-.447c-.055,0-.111,0-.166.007a1.668,1.668,0,0,0-1.435.967C19.878,6.385,18.913,10.452,18.35,16a41.72,41.72,0,0,1-2.066-7.517c-.229-1.245-.767-1.851-1.645-1.851-.045,0-.091,0-.137,0a2.076,2.076,0,0,0-1.631,1.319L8.11,17.121c-.8-3.248-1.536-7.174-2.2-11.67A1.573,1.573,0,0,0,4.253,3.859c-.074,0-.152,0-.231.009a1.738,1.738,0,0,0-1.37.681A1.964,1.964,0,0,0,2.3,6.022c1.276,8.2,2.483,13.815,3.587,16.682.421,1.022.9,1.519,1.452,1.519l.07,0C8.329,24.153,9.4,22.9,10.7,20.4c.689-1.438,1.742-3.567,3.13-6.327ZM44.745,5.319c-2.071,0-3.79,1.109-5.109,3.3a11.784,11.784,0,0,0-1.7,6.2,8.622,8.622,0,0,0,1.044,4.351,4.991,4.991,0,0,0,3.479,2.55,5.654,5.654,0,0,0,1.174.131c2.091,0,3.81-1.109,5.109-3.3a11.945,11.945,0,0,0,1.7-6.219A8.347,8.347,0,0,0,49.4,8a4.991,4.991,0,0,0-3.479-2.55A5.65,5.65,0,0,0,44.745,5.319Zm-13.632,0c-2.07,0-3.789,1.109-5.109,3.3a11.792,11.792,0,0,0-1.7,6.2,8.622,8.622,0,0,0,1.043,4.351,4.991,4.991,0,0,0,3.479,2.55A5.65,5.65,0,0,0,30,21.846c2.092,0,3.811-1.109,5.109-3.3a11.946,11.946,0,0,0,1.7-6.219A8.346,8.346,0,0,0,35.766,8a5.072,5.072,0,0,0-3.479-2.55A5.654,5.654,0,0,0,31.113,5.319ZM145.5,21.385a7.544,7.544,0,0,1-5.631-2.219,8.028,8.028,0,0,1-2.153-5.825A7.518,7.518,0,0,1,139.889,7.8a7.386,7.386,0,0,1,5.406-2.154h.1a8.968,8.968,0,0,1,2.37.286v3.56a7.969,7.969,0,0,0-2.174-.33A3.239,3.239,0,0,0,143,10.373a4.6,4.6,0,0,0-1.022,3.077,4.613,4.613,0,0,0,1.044,3.187,3.561,3.561,0,0,0,2.761,1.165,7.22,7.22,0,0,0,1.978-.329v3.56A8.092,8.092,0,0,1,145.5,21.385Zm-71.554,0a5.9,5.9,0,0,1-4.87-2.088,9.442,9.442,0,0,1-1.674-6,8.563,8.563,0,0,1,1.674-5.648,5.839,5.839,0,0,1,4.7-2.021,6.157,6.157,0,0,1,4.914,2.021,8.893,8.893,0,0,1,1.7,5.8A9.166,9.166,0,0,1,78.707,19.3,5.773,5.773,0,0,1,73.945,21.385ZM73.814,9.033a1.748,1.748,0,0,0-1.633,1.074,7.494,7.494,0,0,0-.541,3.233,8.2,8.2,0,0,0,.544,3.714,1.74,1.74,0,0,0,1.588.923,1.915,1.915,0,0,0,1.717-.923,7.746,7.746,0,0,0,.631-3.649C76.119,10.5,75.344,9.033,73.814,9.033ZM64.292,21.385a7.547,7.547,0,0,1-5.631-2.219,8.028,8.028,0,0,1-2.152-5.825A7.517,7.517,0,0,1,58.682,7.8a7.385,7.385,0,0,1,5.4-2.154h.1a8.981,8.981,0,0,1,2.371.286v3.56a7.981,7.981,0,0,0-2.174-.33,3.24,3.24,0,0,0-2.587,1.209A4.6,4.6,0,0,0,60.77,13.45a4.613,4.613,0,0,0,1.043,3.187A3.561,3.561,0,0,0,64.574,17.8a7.232,7.232,0,0,0,1.979-.329v3.56A8.1,8.1,0,0,1,64.292,21.385Zm61.357-.352h-8.11V6.066h8.088V9.253h-4.088V12h3.544v3.1h-3.544v2.747h4.109v3.186Zm5.152-.021h-4V6.044h4.653a7.314,7.314,0,0,1,4.457,1.23,3.963,3.963,0,0,1,1.631,3.341,4.046,4.046,0,0,1-.63,2.11,3.977,3.977,0,0,1-1.783,1.539l3.2,6.746h-4.218L130.866,14.2H130.8v6.813Zm-.022-12.089v3.56c1.76-.022,2.652-.554,2.652-1.582a1.728,1.728,0,0,0-.608-1.495A3.621,3.621,0,0,0,130.779,8.923ZM102.6,21.012H98.818L100.71,6.044h5.044c.735,3.309,1.289,6.033,1.7,8.33l.435-2.33c.181-.941.387-1.861.565-2.637l.783-3.362h5.152l2,14.966h-3.956l-1.066-10.286-2.457,10.286h-2.7L103.623,10.7,102.6,21.011Zm-18.111,0H80.707L82.6,6.044h5.044c.732,3.295,1.286,6.019,1.7,8.33l.435-2.33c.163-.847.344-1.667.565-2.637l.783-3.362H96.3l2,14.966H94.339L93.274,10.725,90.8,21.011H88.1L85.512,10.7,84.49,21.011Zm72.509,0h-8.109V6.044h8.087V9.231h-4.109v2.747h3.544v3.1h-3.544v2.748H157V21.01ZM43.5,18.07h0a1.311,1.311,0,0,1-.259-.026c-.533-.112-.965-.593-1.283-1.429a5.594,5.594,0,0,1-.392-2,7.681,7.681,0,0,1,.152-1.6A7.169,7.169,0,0,1,42.875,10.4,2.528,2.528,0,0,1,44.835,9a1.57,1.57,0,0,1,.3.03c.534.112.965.593,1.282,1.428a5.594,5.594,0,0,1,.392,2,9.635,9.635,0,0,1-.152,1.626,5.816,5.816,0,0,1-1.652,3.253A2.344,2.344,0,0,1,43.5,18.07Zm-13.632,0a1.311,1.311,0,0,1-.259-.026c-.533-.112-.965-.593-1.283-1.429a5.594,5.594,0,0,1-.391-2,7.681,7.681,0,0,1,.152-1.6A7.175,7.175,0,0,1,29.244,10.4,2.528,2.528,0,0,1,31.2,9a1.57,1.57,0,0,1,.3.03c.534.112.965.593,1.283,1.428a5.594,5.594,0,0,1,.391,2,7.708,7.708,0,0,1-.152,1.626,5.8,5.8,0,0,1-1.652,3.253A2.341,2.341,0,0,1,29.872,18.07Z" transform="translate(0 0)" fill="#c4c4c4"/>
</svg>
