<svg xmlns="http://www.w3.org/2000/svg" xmlns:xlink="http://www.w3.org/1999/xlink" width="444" height="331" viewBox="0 0 444 331">
  <defs>
    <filter id="Rectangle_285" x="0" y="0" width="444" height="331" filterUnits="userSpaceOnUse">
      <feOffset dy="45" input="SourceAlpha"/>
      <feGaussianBlur stdDeviation="40" result="blur"/>
      <feFlood flood-opacity="0.039"/>
      <feComposite operator="in" in2="blur"/>
      <feComposite in="SourceGraphic"/>
    </filter>
  </defs>
  <g id="logo" transform="translate(120 75)">
    <g transform="matrix(1, 0, 0, 1, -120, -75)" filter="url(#Rectangle_285)">
      <rect id="Rectangle_285-2" data-name="Rectangle 285" width="204" height="91" rx="12" transform="translate(120 75)" fill="#fff"/>
    </g>
    <path id="Union" d="M49.192,36.511a47.763,47.763,0,0,1-17.384-3.223,47.056,47.056,0,0,1-14.447-8.9.7.7,0,0,1-.242-.756.519.519,0,0,1,.5-.32.932.932,0,0,1,.464.14,64.155,64.155,0,0,0,31.83,8.426,63.6,63.6,0,0,0,24.3-4.979,1.387,1.387,0,0,1,.508-.1,1.007,1.007,0,0,1,.985.646,1,1,0,0,1-.472,1.113,40.091,40.091,0,0,1-12.351,5.925A48.981,48.981,0,0,1,49.192,36.511ZM76.611,33.9a.363.363,0,0,1-.314-.148.558.558,0,0,1,0-.518l.044-.111c.879-2.194,2.708-6.76,1.829-7.932-.35-.45-1.379-.678-3.06-.678a43.484,43.484,0,0,0-5.153.422,1.023,1.023,0,0,1-.126.008c-.234,0-.4-.092-.445-.253-.065-.214.093-.485.4-.691a12.785,12.785,0,0,1,7.122-1.953c2.225,0,3.925.452,4.283.889s.357,2.266-.293,4.532a12.846,12.846,0,0,1-3.708,6.192A.987.987,0,0,1,76.611,33.9ZM94.469,21.575a7.483,7.483,0,0,1-6.255-3.128,12.891,12.891,0,0,1-2.17-7.6C86.019,7.3,87.052,4.3,88.953,2.382A7.584,7.584,0,0,1,94.469.17a7.661,7.661,0,0,1,6.388,3.144,12.814,12.814,0,0,1,2.207,7.707,12.15,12.15,0,0,1-2.319,7.479A7.724,7.724,0,0,1,94.469,21.575Zm0-17.447c-2.6,0-2.936,3.275-2.936,6.128v.1a20.46,20.46,0,0,0,.361,4.524c.433,1.818,1.285,2.739,2.533,2.739,2.715,0,3.064-3.479,3.064-6.511A18.76,18.76,0,0,0,96.938,6,2.352,2.352,0,0,0,94.469,4.127ZM54.81,21.4a5.606,5.606,0,0,1-3.989-1.463,5.881,5.881,0,0,1-1.628-4.367,6.355,6.355,0,0,1,4-6.127,21.182,21.182,0,0,1,5.958-1.2c.381-.04.752-.08,1.106-.121V7.66c0-.1,0-.2,0-.309V7.343a3.994,3.994,0,0,0-.47-2.407A2.547,2.547,0,0,0,57.7,3.957a2.84,2.84,0,0,0-3.021,2.255c-.082.329-.293.681-.638.681l-3.617-.383a.657.657,0,0,1-.554-.766,6.37,6.37,0,0,1,3.17-4.532A10.723,10.723,0,0,1,58.258,0c.875,0,3.87.135,5.66,1.872C65.6,3.441,65.592,5.539,65.579,7.76v.191c0,.129,0,.259,0,.389v5.83a4.757,4.757,0,0,0,1.158,3.143c.075.1.161.224.247.347a.9.9,0,0,1,.2.651.485.485,0,0,1-.2.328c-.527.416-1.281,1.061-1.947,1.629-.33.282-.706.6-.99.84a.77.77,0,0,1-.434.186c-.024,0-.049,0-.073,0a.772.772,0,0,1-.387-.1,8.267,8.267,0,0,1-1.893-2.108c-.087-.128-.178-.26-.277-.4A7.481,7.481,0,0,1,54.81,21.4ZM60.257,11.15a8.334,8.334,0,0,0-3.809.7,3.219,3.219,0,0,0-1.766,3.09c0,1.654.9,2.723,2.3,2.723a3.013,3.013,0,0,0,2.6-1.7,7.185,7.185,0,0,0,.681-3.771V11.15ZM5.617,21.4a5.606,5.606,0,0,1-3.989-1.463A5.881,5.881,0,0,1,0,15.575,6.355,6.355,0,0,1,4,9.447a21.187,21.187,0,0,1,5.958-1.2c.381-.04.752-.08,1.106-.121V7.66c0-.1,0-.21,0-.317A4.005,4.005,0,0,0,10.6,4.937a2.546,2.546,0,0,0-2.084-.979A2.84,2.84,0,0,0,5.491,6.213c-.083.329-.294.681-.638.681L1.236,6.511a.657.657,0,0,1-.553-.766,6.368,6.368,0,0,1,3.17-4.532A10.722,10.722,0,0,1,9.065,0c.875,0,3.87.135,5.66,1.872C16.411,3.44,16.4,5.538,16.386,7.759v.008q0,.286,0,.573v5.83a4.761,4.761,0,0,0,1.157,3.142c.075.1.163.226.247.347a.892.892,0,0,1,.2.65.485.485,0,0,1-.2.329c-.512.405-1.256,1.039-1.912,1.6l-.035.03-.009.008c-.367.314-.711.608-.98.832a.776.776,0,0,1-.435.186c-.024,0-.049,0-.073,0a.767.767,0,0,1-.387-.1,8.274,8.274,0,0,1-1.9-2.11c-.086-.126-.176-.258-.275-.4A7.479,7.479,0,0,1,5.617,21.4ZM11.106,11.15a8.334,8.334,0,0,0-3.809.7,3.219,3.219,0,0,0-1.766,3.09c0,1.654.9,2.723,2.3,2.723a3.013,3.013,0,0,0,2.6-1.7,7.185,7.185,0,0,0,.681-3.771c0-.077,0-.153,0-.23V11.15Zm24.1,10.042H31.447a.734.734,0,0,1-.68-.681V10.3c0-.233,0-.477.006-.663.023-1.514.049-3.229-.81-4.1a2.01,2.01,0,0,0-1.494-.554,2.219,2.219,0,0,0-1.636.607c-.965.966-.962,2.931-.961,4.511V20.511a.739.739,0,0,1-.261.465.749.749,0,0,1-.479.173H21.362a.776.776,0,0,1-.448-.2.766.766,0,0,1-.232-.435V1.276A.713.713,0,0,1,20.9.788.705.705,0,0,1,21.391.6h3.5a.693.693,0,0,1,.68.638V3.745h.086A4.977,4.977,0,0,1,30.6.17c2.314,0,3.81,1.1,4.851,3.575A5.328,5.328,0,0,1,40.639.17,5.228,5.228,0,0,1,44.979,2.3c1.014,1.376.98,3.268.948,5.1-.005.312-.011.635-.011.946V20.511a.71.71,0,0,1-.71.681H41.49a.734.734,0,0,1-.681-.681V10.3c0-.15,0-.34.007-.559l0-.11a18.09,18.09,0,0,0-.094-2.948,1.967,1.967,0,0,0-2.213-1.66A2.506,2.506,0,0,0,36.256,6.6a10.636,10.636,0,0,0-.341,3.4q0,.08,0,.157v.012q0,.069,0,.135V20.511a.709.709,0,0,1-.71.681Zm85.379-.043H116.81a.771.771,0,0,1-.68-.6V10.085c0-.171,0-.348,0-.529.014-1.514.031-3.23-.836-4.105a2.035,2.035,0,0,0-1.508-.558,2.468,2.468,0,0,0-2.17,1.532,8.753,8.753,0,0,0-.6,3.66V20.469a.779.779,0,0,1-.766.68h-3.745a.732.732,0,0,1-.68-.68V1.191a.736.736,0,0,1,.724-.638h3.489a.732.732,0,0,1,.433.163.719.719,0,0,1,.248.391V4.042h.086C111.92,1.292,113.4.17,115.917.17A4.971,4.971,0,0,1,120.3,2.426c.978,1.532.978,4.114.978,6V20.553a.694.694,0,0,1-.248.436A.7.7,0,0,1,120.584,21.15Zm-50.563-.5h0a.713.713,0,0,1-.657-.695V17.149a3.2,3.2,0,0,1,.468-1.873l7.4-10.6H70.8a.7.7,0,0,1-.486-.193A.713.713,0,0,1,70.087,4V1.234a.641.641,0,0,1,.041-.266A.648.648,0,0,1,70.5.595.644.644,0,0,1,70.73.552h12.4a.7.7,0,0,1,.484.193.713.713,0,0,1,.222.488V3.575A4.112,4.112,0,0,1,82.9,5.319l-6.384,9.107.1,0H76.9a13.488,13.488,0,0,1,6.632,1.492,1.277,1.277,0,0,1,.638,1.064v2.937a.7.7,0,0,1-.625.71.558.558,0,0,1-.268-.072,13.97,13.97,0,0,0-6.5-1.575A13.734,13.734,0,0,0,70.257,20.6.522.522,0,0,1,70.021,20.652Z" transform="translate(41.539 31.868)" fill="#c4c4c4"/>
  </g>
</svg>
