<svg xmlns="http://www.w3.org/2000/svg" width="107" height="24" viewBox="0 0 107 24">
  <path id="Logo" d="M25.158,24a7.247,7.247,0,0,1-5.715-2.163c-1.264-1.435-1.905-3.618-1.905-6.489,0-2.8.632-4.949,1.879-6.384a6.526,6.526,0,0,1,5.219-2.2,6.64,6.64,0,0,1,5.151,1.989A8.363,8.363,0,0,1,31.7,14.512l-.139,2.581H21.4c.208,2.5,1.472,3.767,3.758,3.767a16.507,16.507,0,0,0,5.08-.872l.731,3.035a17.441,17.441,0,0,1-2.888.663A17.567,17.567,0,0,1,25.158,24Zm-.383-13.989a3.086,3.086,0,0,0-2.47.976,5.348,5.348,0,0,0-.9,3.174h6.437a5.241,5.241,0,0,0-.769-3.108A2.677,2.677,0,0,0,24.775,10.012ZM40.538,23.965a21.5,21.5,0,0,1-6.507-1.116l.766-3.175a18.627,18.627,0,0,0,5.254,1.047,6.184,6.184,0,0,0,2.645-.383,1.284,1.284,0,0,0,.7-1.255,1.4,1.4,0,0,0-.626-1.292,9.278,9.278,0,0,0-2.366-.8,14.218,14.218,0,0,1-4.8-1.849,4.023,4.023,0,0,1-1.357-3.384,4.469,4.469,0,0,1,1.6-3.741,7.77,7.77,0,0,1,4.8-1.247,26.749,26.749,0,0,1,6.368.907l-.661,3.314a21.27,21.27,0,0,0-5.324-.976,6.2,6.2,0,0,0-2.541.349,1.143,1.143,0,0,0-.626,1.116,1.3,1.3,0,0,0,.626,1.186,22.139,22.139,0,0,0,3.341,1.081,11.519,11.519,0,0,1,3.932,1.71A3.822,3.822,0,0,1,47.011,18.7a4.814,4.814,0,0,1-1.618,3.951A7.608,7.608,0,0,1,40.538,23.965Zm45.584-.348H82.538V.418h3.584V13.71l2.3-.245a32.748,32.748,0,0,0,3.41-5.441l.487-.977h3.9a34.269,34.269,0,0,1-4.871,7.745,68.3,68.3,0,0,1,4.488,7.5l.695,1.324h-4.07a56.858,56.858,0,0,0-3.9-7.081l-2.435.244v6.837Zm-32.744,0H49.794V7.046h3.479l.069,1.012a11.662,11.662,0,0,1,4.42-1.291A4.977,4.977,0,0,1,61.9,8.442c.9,1.087,1.356,2.824,1.356,5.162V23.615H59.676V13.71a4.929,4.929,0,0,0-.591-2.616,2.029,2.029,0,0,0-1.844-.942,10.552,10.552,0,0,0-3.863,1.221V23.616Zm53.622,0h-5.045V18.558H107v5.057Zm-27.35,0H65.975V20.407h5.185V10.255H66.253V7.046h8.491V20.407H79.65v3.208Zm-72.969,0H0V.768H6.994A9.185,9.185,0,0,1,12.683,2.25,5.32,5.32,0,0,1,14.58,6.7a5.667,5.667,0,0,1-.975,3.314,4.162,4.162,0,0,1-2.644,1.744,4.424,4.424,0,0,1,3.028,1.709,5.875,5.875,0,0,1,1.147,3.663,5.774,5.774,0,0,1-2.114,4.866C11.62,23.07,9.486,23.616,6.681,23.616ZM3.619,13.535v6.942H7.2a4.432,4.432,0,0,0,3.271-1.012,3.727,3.727,0,0,0,.974-2.687A2.842,2.842,0,0,0,10.37,14.3a5.746,5.746,0,0,0-3.341-.767Zm0-9.628V10.4H6.96c2.7,0,4.071-1.15,4.071-3.418,0-2.037-1.276-3.07-3.793-3.07Zm69.141.733a2.263,2.263,0,0,1-1.67-.628A2.478,2.478,0,0,1,70.5,2.3,2.275,2.275,0,0,1,71.124.628,2.265,2.265,0,0,1,72.795,0,2.079,2.079,0,0,1,74.43.628,2.277,2.277,0,0,1,75.022,2.3a2.4,2.4,0,0,1-.592,1.709A2.193,2.193,0,0,1,72.76,4.639Z" transform="translate(0 0)" fill="#000228"/>
</svg>
