<svg xmlns="http://www.w3.org/2000/svg" width="20.3" height="18.85" viewBox="0 0 20.3 18.85">
  <path id="Vector" d="M19.791,6.764,13.5,5.874,10.683.323a.6.6,0,0,0-1.067,0L6.8,5.874l-6.293.89a.591.591,0,0,0-.48.394.568.568,0,0,0,.151.593l4.554,4.321-1.075,6.1a.572.572,0,0,0,.237.566.608.608,0,0,0,.626.044L10.15,15.9l5.629,2.881a.608.608,0,0,0,.626-.044.572.572,0,0,0,.237-.566l-1.075-6.1L20.12,7.751a.568.568,0,0,0,.15-.593A.59.59,0,0,0,19.791,6.764Z" transform="translate(0)" fill="#ffca56"/>
</svg>
