<svg xmlns="http://www.w3.org/2000/svg" width="18" height="18" viewBox="0 0 18 18">
  <path id="Subtract" d="M15.714,18H11.7V16.193h4.014a.479.479,0,0,0,.479-.479V12.182H18v3.533A2.289,2.289,0,0,1,15.714,18ZM6.095,18H2.286A2.289,2.289,0,0,1,0,15.714V12.182H1.807v3.533a.479.479,0,0,0,.479.479H6.095V18ZM18,6.577H16.193V2.286a.479.479,0,0,0-.479-.479H11.7V0h4.014A2.289,2.289,0,0,1,18,2.286v4.29Zm-16.193,0H0V2.286A2.289,2.289,0,0,1,2.286,0H6.095V1.807H2.286a.479.479,0,0,0-.479.479v4.29Z" transform="translate(0 0)" fill="#0889fe"/>
</svg>
